{"title":"Reality Trip S01E03 HDTV x264-FiHTV","uid":12073717,"size":363441873,"categoryP":"video","categoryS":"tv_shows","magnet":"?xt=urn:btih:28fb9083cdf99da5fd0a7ee9340722707c603cd9&amp;dn=Reality+Trip+S01E03+HDTV+x264-FiHTV&amp;tr=udp%3A%2F%2Ftracker.openbittorrent.com%3A80&amp;tr=udp%3A%2F%2Fopen.demonii.com%3A1337&amp;tr=udp%3A%2F%2Ftracker.coppersurfer.tk%3A6969&amp;tr=udp%3A%2F%2Fexodus.desync.com%3A6969","seeders":1,"leechers":0,"uploader":"Mulva1989","files":2,"time":1435587118,"description":"Reality Trip S01E03 HDTV x264-FiHTV\n\nIn the Philippines, the five Kiwis experience what goes into\n the production of costume jewellery and the desperate \nlengths some people go to in order to survive. \n\nScreens @ &lt;a href=&quot;\nhttps://yuq.me/users/50/321/bikQctR8eI.jpg&quot; rel=&quot;nofollow&quot; target=&quot;_NEW&quot;&gt;\nhttps://yuq.me/users/50/321/bikQctR8eI.jpg&lt;/a&gt; &lt;a href=&quot;\nhttps://yuq.me/users/50/321/MQydGY9gsS.jpg&quot; rel=&quot;nofollow&quot; target=&quot;_NEW&quot;&gt;\nhttps://yuq.me/users/50/321/MQydGY9gsS.jpg&lt;/a&gt;\n\nFormat : MPEG-4\nFormat profile : Base Media\nCodec ID : isom\nFile size : 347 MiB\nDuration : 44mn 54s\nOverall bit rate mode : Variable\nOverall bit rate : 1 079 Kbps\nEncoded date : UTC 2015-06-28 11:23:54\nTagged date : UTC 2015-06-28 11:23:54\n\nVideo\nID : 1\nFormat : AVC\nFormat/Info : Advanced Video Codec\nFormat profile : &lt;a class=&quot;__cf_email__&quot; href=&quot;/cdn-cgi/l/email-protection&quot; data-cfemail=&quot;0149686669414d322f30&quot;&gt;[email&amp;#160;protected]&lt;/a&gt;&lt;script data-cfhash='f9e31' type=&quot;text/javascript&quot;&gt;\n/* &lt;![CDATA[ */!function(){try{var t=&quot;currentScript&quot;in document?document.currentScript:function(){for(var t=document.getElementsByTagName(&quot;script&quot;),e=t.length;e--;)if(t[e].getAttribute(&quot;data-cfhash&quot;))return t[e]}();if(t&amp;&amp;t.previousSibling){var e,r,n,i,c=t.previousSibling,a=c.getAttribute(&quot;data-cfemail&quot;);if(a){for(e=&quot;&quot;,r=parseInt(a.substr(0,2),16),n=2;a.length-n;n+=2)i=parseInt(a.substr(n,2),16)^r,e+=String.fromCharCode(i);e=document.createTextNode(e),c.parentNode.replaceChild(e,c)}t.parentNode.removeChild(t);}}catch(u){}}()/* ]]&gt; */&lt;/script&gt;\nFormat settings, CABAC : Yes\nFormat settings, ReFrames : 5 frames\nCodec ID : avc1\nCodec ID/Info : Advanced Video Coding\nDuration : 44mn 54s\nBit rate : 946 Kbps\nMaximum bit rate : 4 662 Kbps\nWidth : 720 pixels\nHeight : 404 pixels\nDisplay aspect ratio : 16:9\nFrame rate mode : Constant\nFrame rate : 25.000 fps\nColor space : YUV\nChroma subsampling : 4:2:0\nBit depth : 8 bits\nScan type : Progressive\nBits/(Pixel*Frame) : 0.130\nStream size : 304 MiB (88%)\nWriting library : x264 core 146 r2538 121396c\nEncoding settings : cabac=1 / ref=5 / deblock=1:1:1 / analyse=0x3:0x133 / me=umh / subme=8 / psy=1 / psy_rd=1.00:0.00 / mixed_ref=1 / me_range=16 / chroma_me=1 / trellis=1 / 8x8dct=1 / cqm=0 / deadzone=21,11 / fast_pskip=1 / chroma_qp_offset=-2 / threads=18 / lookahead_threads=3 / sliced_threads=0 / nr=0 / decimate=1 / interlaced=0 / bluray_compat=0 / constrained_intra=0 / bframes=3 / b_pyramid=2 / b_adapt=2 / b_bias=0 / direct=3 / weightb=1 / open_gop=0 / weightp=2 / keyint=250 / keyint_min=25 / scenecut=40 / intra_refresh=0 / rc_lookahead=50 / rc=crf / mbtree=1 / crf=21.0 / qcomp=0.60 / qpmin=0 / qpmax=69 / qpstep=4 / ip_ratio=1.40 / aq=1:1.00\nEncoded date : UTC 2015-06-29 11:19:41\nTagged date : UTC 2015-06-28 11:23:56\nMatrix coefficients : BT.709\nColor range : Limited\n\nAudio\nID : 2\nFormat : AAC\nFormat/Info : Advanced Audio Codec\nFormat profile : LC\nCodec ID : 40\nDuration : 44mn 54s\nBit rate mode : Variable\nBit rate : 129 Kbps\nMaximum bit rate : 179 Kbps\nChannel(s) : 2 channels\nChannel positions : Front: L R\nSampling rate : 48.0 KHz\nCompression mode : Lossy\nStream size : 41.4 MiB (12%)\nEncoded date : UTC 2015-06-28 11:23:55\nTagged date : UTC 2015-06-28 11:23:56","torrent":{"xt":"urn:btih:28fb9083cdf99da5fd0a7ee9340722707c603cd9","amp;dn":"Reality+Trip+S01E03+HDTV+x264-FiHTV","amp;tr":["udp%3A%2F%2Ftracker.openbittorrent.com%3A80","udp%3A%2F%2Fopen.demonii.com%3A1337","udp%3A%2F%2Ftracker.coppersurfer.tk%3A6969","udp%3A%2F%2Fexodus.desync.com%3A6969"],"infoHash":"28fb9083cdf99da5fd0a7ee9340722707c603cd9","infoHashBuffer":{"type":"Buffer","data":[40,251,144,131,205,249,157,165,253,10,126,233,52,7,34,112,124,96,60,217]},"announce":[],"urlList":[]}}